<svg xmlns="http://www.w3.org/2000/svg" width="250" height="250" fill="none" viewBox="0 0 250 250">
<!-- SVG created with Arrow, by QuiverAI (https://quiver.ai) -->
  <path d="m28.91 34.16c8.71-4.8 28.68-9.2 52.97-0.37 4.09 1.73 8 3.86 11.64 6.37 14.31-7.05 32.69-12.53 57.93-12.53 12.46 0 28.21 0.3 42.48 5.48 6.35 2.49 11.16 7.93 13.14 16 4.54 18.88-0.26 36.82-5.3 47.69l6.61 3.32-6.26 4.8 1.21 2.14c5.28-0.81 13.5 1.71 19.46 10.65l-8.07 3.1 1.1 3.08c5.79 1.45 10.45 6.99 12.06 16.55l-8.71-1.54-0.69 3.19c6.44 6.67 6.71 15.2 4.94 22.05l-7.96-4.44-1.54 3.52c2.91 7.84-0.7 15.91-5.88 21.93l-4.08-8.07c-3.78 10.08-7.22 15.63-16.59 18.73l-0.35-8.91-2.6-0.48c-5.34 7.19-10.14 8.74-19.21 8.74l0.5-4.15c-13.63 7.84-26.49 10.94-45.64 10.94-27.06 0-49.16-10.94-60.85-23.04-3.08-2.62-5.88-5.56-8.35-8.77-7.96 3.52-15.1 5.07-22.8 4.59-3.25-0.22-5.96-1.49-5.41-4.11 2.47-10.08 8.26-21.31 13.77-29.15-5.97-20.36-3.5-41.46 9.36-64.94-0.67-12.44-4.08-23.07-15.08-33.15-4.55-3.99-5-7.47-1.8-9.22z" fill="#579ABB" stroke="#113958" stroke-linecap="round" stroke-linejoin="round" stroke-width="4.63"/>
  <path d="m29.95 36.14c9.04-4.68 27.17-5.96 42.16-1.24 5.87 1.99 11.11 4.93 15.66 7.94l-5.72 2.97c-7.87-4.99-20.33-10.09-32.61-11.1-5.97-0.62-12.57-0.79-19.49 1.43z" fill="#B9D9E8"/>
  <path d="m30.04 37.11c6.83 0.17 23.37 5.73 30.11 20.4l-1.77 3.32-10.47 10.63c-0.26-8.7-3.05-20.3-11.6-28.44-3-2.86-6.27-5.91-6.27-5.91z" fill="#417BA4"/>
  <path d="m38.74 103.7c10.47-32.63 39.97-59.47 77.28-66.98 23.69-5.54 51.06-6.58 73.83-2.05 8.37 1.88 13.56 5.12 15.63 14.4 3.26 12.7 0.79 27.72-4.02 40.6l-2.47 3-1.86-8.07c-5.15-6.02-13.29-7.03-23.25-5.4-16.97 2.99-31.87 12.9-46.67 29.4-10.98 12.44-18.12 24.54-20.09 38.7l4.05-6.42c2.99 15.19 11.89 31.94 27.55 41.5 6.34 4 13.26 5.79 20.19 6.28-11.49 7.32-26.2 10.41-40.42 10.15-25.23-0.53-46.11-10.64-58.34-23.08-2.47-2.36-4.01-4.45-5.56-6.7 9.96-5.53 19.92-13.46 19.92-22.48 0-4.85-1.1-9.36-1.1-9.36-3.25 9.85-10.65 20.48-22.14 26.91-6.43 3.77-14.04 6.62-22.1 6.62-2.71 0-5.3-0.7-4.84-2.85 3.34-11.8 10.36-23.98 13.88-28.75-2.47-11.14-2.47-24.29 0.53-35.42z" fill="url(#paint0_linear_201_1104)"/>
  <path d="m134.1 33.7c3.97-1.01 13.58-1.73 16.66-1.01 2.21 0.56 1.08 4.34-4.71 6.4-7.02 2.52-12.81 0.46-13.26-1.3-0.55-1.54 0-3.63 1.31-4.09z" fill="#B9D9E8"/>
  <path d="m156.6 36.22c2.47-0.5 3.78 0.54 3.78 1.57s-1.51 1.83-3.28 1.6c-1.98-0.3-2.83-1.33-2.48-2.36 0.17-0.44 0.95-0.66 1.98-0.81z" fill="#B9D9E8"/>
  <path d="m147.2 65.21c11.49-11.16 22.98-20.72 40.84-23.94 7.33-1.44 14.26 1.57 16.23 7.1 2.47 7.19 2.47 22.66-3.05 40.33-2.05-11.13-11.5-16.67-24.85-15.16-15.3 1.86-31.15 11.42-41.62 20.15-9.45 8.45-21.98 23.12-26.96 35.56 2.3-10.08 12.77-24.24 21.22-33.19 5.74-6.1 10.17-13.15 18.19-20.99v-9.86z" fill="#B9D9E8"/>
  <path d="m141.7 95.03c6.93-6.02 15.3-10.9 27.76-12.96 9.45-1.68 18.9-1.68 24.44 3.6 2.21 2.22 2.21 5.31 1.48 7.53l-8.47 6.51-4.63-11.68-9.96 15.98-10.98-13.65-5.34 17.15-13.85-8.95-0.45-3.53z" fill="#F2CCC0" stroke="#113958" stroke-linecap="round" stroke-linejoin="round" stroke-width="4.63"/>
  <path d="m125.8 110.2 15.92-14.64-0.95 20.13-1.56 1.55-12.46-6.47-0.95-0.57z" fill="#FEFFFE" stroke="#113958" stroke-linecap="round" stroke-linejoin="round" stroke-width="3.087"/>
  <path d="m115.3 123.4 7.97-13.15 5.41 2.01-0.45 11.59-12.93-0.45z" fill="#FEFFFE" stroke="#113958" stroke-linecap="round" stroke-linejoin="round" stroke-width="3.087"/>
  <path d="m115.3 152.6 11.87-2.52-3.55 14.67-8.32-12.15z" fill="#FEFFFE" stroke="#113958" stroke-linecap="round" stroke-linejoin="round" stroke-width="3.087"/>
  <path d="m125.3 168.3 10.98-6.02h4.05l-1.55 15.98-13.48-9.96z" fill="#FEFFFE" stroke="#113958" stroke-linecap="round" stroke-linejoin="round" stroke-width="3.087"/>
  <path d="m141.3 176.2 6.93 0.49 1.02 4.51-5.06 1.04-2.89-6.04z" fill="#D3A095" stroke="#113958" stroke-linecap="round" stroke-linejoin="round" stroke-width="3.087"/>
  <path d="m131.2 125.3c-3.41-2.33-1.53 6.28 1.98 10.79 3.52 4.52 3.52 8.52 0 10.06-2.47 1.03-1.98 4.63 1.54 7.62 2.47 2.15 4.95 2.15 5.97 4.13 1.48 2.99-1.02 11.35 0 15.86 0.73 3.52 6.51 0.53 8.5 3.52 1.51 2.52-1.99 6.04-1.99 6.04 4.05 2.52 9.67 4.07 17.07 2.02 4.05-1.27 4.51 2.25 3 8.27 6.92 0 10.97-2.52 16.5-9.84 2.05-0.45 5.04-0.45 5.04 6.07 5.53-2.52 9.04-6.52 11.09-13.81 1.98-2.06 6.03-2.55 7.54 2.47 5.04-5.02 6.06-10.48 3.59-17.53 0.45-3.07 2.43-3.56 7.47-0.54 1.03 0.54 1.53 1.04 2.03 1.54 1.02-6.52 0-12.54-5.04-18.56-0.5-1.98 1.01-5.04 7.03-3.53 1.03 0.26 2.54 0.76 3.56 1-1.51-7.94-5.02-13.47-12.45-15.99-1.98-1.51-1.48-4.57 4.95-6.08 1.03-0.26 2.05-0.52 3.07-0.78-5.04-7.46-10.57-9.98-18.53-9.49-2.48-1.03-3.5-3.55 1.05-7.07-4.05-2.02-9.58-4.04-16.02-1.02-2.47 1.27-3.49-1.79-5-8.31-1.51-2.52-7.04 12.15-10.56 12.64-2.47-1.76-8.5-11.62-10.48-12.64-1.97-1.03-4.96 14.54-6.47 16.05-1.97 1.51-6.95-3-8.46-3-2.47 0-3.98 10.63-5.96 12.14-1.98 1.01-1.03 3.52-1.03 5.54-0.02 2.96-2.49 5-8.99 2.43z" fill="#94A8B6" stroke="#113958" stroke-linecap="round" stroke-linejoin="round" stroke-width="4.63"/>
  <path d="m174.8 109.2c11.98-1 22.45 5.02 28.9 18.12 6.44 13.11 0.91 32.46-12.55 44.53-12.93 11.6-29.9 10.05-40.88-2.39-10.97-12.44-13.02-27.91-6.09-41.56 7.43-14.16 19.41-19.7 30.62-18.7z" fill="#B9C6D2"/>
  <path d="m149.7 141.9c-1.02-8.45 3.52-16.98 10.95-21.49" stroke="#829BA9" stroke-linecap="round" stroke-linejoin="round" stroke-width="3.859"/>
  <path d="m190.7 165.2c6.43-5.02 9.45-11.54 9.45-21.1" stroke="#678BA2" stroke-linecap="round" stroke-linejoin="round" stroke-width="3.859"/>
  <path d="m171.3 133.5 14.35 4.51 13.85-12.96c5.04 7.94 6.55 21.09 0.11 27.11l-14.35-5.01-13.96-13.65z" fill="#829BA9"/>
  <path d="m162.8 169.8c3.52 2.52 8.07 3.53 12.61 3.03l-5.04 1.51c-4.55 0.5-9.09-1.01-12.64-4.04l5.07-0.5z" fill="#829BA9"/>
  <path d="m185.6 138-8.47 15.98-16.97 11.06 0.5 11.6-4.55-0.01-12.46-13.15 6.03-4 12.95-9.01 8.47-15.47 14.5 3z" fill="#FEFFFE"/>
  <path d="m190.7 107.7-8.47 16.48-5.04 4.51 8.96 8.43 19.27-17.01-11.96-12.9-2.76 0.49z" fill="#FEFFFE"/>
  <path d="m175.7 129.9c7.96-1.01 12.01 5.01 12.01 12.03s-6.44 12.55-12.88 12.03c-6.43-0.5-10.98-6.03-10.48-12.55s5.05-11.04 11.35-11.51z" fill="#113958"/>
  <path d="m175.9 134.7c5.04-1.01 7.52 2.99 7.52 7.5-0.5 5.02-4.55 8.04-8.59 7.51-4.05-0.49-6.52-4.01-6.02-8.02 0.5-4 3.05-6.52 7.09-6.99z" fill="#B9D9E8" stroke="#113958" stroke-linecap="round" stroke-linejoin="round" stroke-width="3.087"/>
  <path d="m177.4 135.7c2.05 0 3 1.51 2.5 3.53s-2.48 2.97-3.99 2.47-2-2.01-1.5-3.52 1.53-2.54 2.99-2.48z" fill="#FEFFFE" opacity=".5"/>
  <path d="m121.8 178.8c6.02 6.02 11.41 9.01 21.38 8.52-5.96-1.51-8.95-2-14.92-6-2.48-1.54-3.99-3.05-6.46-2.52z" fill="#B9D9E8"/>
  <path d="m75.01 130.4c-12.45-6.99-17.49-21.15-12.95-35.31 0.5-1.51 0.5-1.51 1 0 0.51 12.44 5.55 24.54 15.51 34.1 1.98 2.02 0.95 3.53-3.56 1.21z" fill="#113958"/>
  <path d="m84.46 122.5c-10.98-7.94-18.41-20.38-13.87-34.54 0.5-1.51 1.52-2.52 1.52-1.51-0.5 11.13 3.55 24.28 14.01 35.41 1.51 1.51 0.49 2.54-1.66 0.64z" fill="#113958"/>
  <path d="m93.91 115.5c-10.46-7.94-16.9-19.07-11.86-35.05 0.5-1.51 1.52-3.02 1.52-2.52-1.98 11.6 1.54 25.76 12.01 37.86 0.95 1.54 0 1.54-1.67-0.29z" fill="#113958"/>
  <path d="m112.3 52.91c6.92 1.01 9.92 9.46 16.84 9.46 3 0 4.02-2.02 5.05-3.03 1.51-1.01 2.53 0 2.03 3.03-1.02 3.99-4.01 5.5-7.98 5.01 0.5 6.95-4.54 12.48-10.5 12.48-6.92 0-10.44-6.02-9.94-11.04 0.5-4.51 2.48-7.53 5.99-9.55-2.99-1.51-5.99-1.01-7.96 0-1.98 1.01-2.48-1.01-0.97-3.03 1.43-2.02 3.93-3.57 7.44-3.33z" fill="#113958"/>
  <path d="m115.8 61.32c2.99 0.49 3.49 2.51 3.49 4.03-0.5 2.52-2.01 3.52-3.98 3.52-1.98 0-3.49-1.51-3.49-3.52 0-2.02 1.51-4.03 3.98-4.03z" fill="#FEFFFE"/>
  <path d="m173.3 53.92c3-0.5 2.5 3.02 2 3.52-2.99 0.49-4.02 3.01-5.01 5.03-1.51 1.51-3.03-0.51-3.03-2.53 0.53-3 2.04-6.02 6.04-6.02z" fill="#113958"/>
  <path d="m200.4 55.94c2.05 0 2.05 3.52 2.05 5.54s-2.05 3.03-2.55 1.01c-0.5-1.51-0.5-3.02-1.45-4.03-0.55-1.01 0.48-2.52 1.95-2.52z" fill="#113958"/>
  <path d="m29.95 83.71c-7.96 10.05-15.4 23.01-13.42 42.83 0.25 3.02 5.29 3.37 5.29-0.12-1.51-15.19 1.49-29.35 7.93-41.79 1.02-2.02 1.02-2.02 0.2-0.92z" fill="#88B6CC"/>
  <path d="m10.58 105.5c-5.04 12.1-5.54 23.69 2.41 41.23 2.05 4.52 7.09 1.5 4.09-3.01-8.46-15.01-8.46-25.09-5.98-38.24 0.5-2.02 0-1.52-0.52 0.02z" fill="#88B6CC"/>
  <path d="m224.1 78.01c1.51-0.5 3.02 0.51 5.5 3.03 8.45 9.02 13.98 19.58 13.98 35.56 0 2.02-0.5 2.52-1-0.5-4.04-13.64-9.08-23.2-18.03-32.22-1.95-2.35-1.95-5.36-0.45-5.87z" fill="#88B6CC"/>
  <path d="m223.6 95.03c1.51-1.51 3.49 0.51 5 2.53 6.92 9.02 8.9 18.04 7.88 31.13 0 3.02-1.03 4.03-1.53 0.48-1.97-11.59-6.52-21.64-11.56-28.16-1.79-2.45-1.79-4.47 0.21-5.98z" fill="#88B6CC"/>
  <path d="m103.9 211.5c13.43 4 33.37 1.98 52.67-6.54 4.05-1.51 4.55 3.51 1.03 5.02-15.3 8.45-35.24 9.46-53.2 2.47-1.98-0.95-1.98-1.48-0.5-0.95z" fill="#88B6CC"/>
  <path d="m137.2 223.6c10.46-1.51 21.44-6.02 33.4-16.08 4.05-3.56 7.05 0.95 3.53 3.98-10.47 8.52-22.44 13.04-36.38 12.54-2.55 0-2.55-0.44-0.55-0.44z" fill="#88B6CC"/>
  <path d="m203.9 209.4c10.46-3.52 19.91-10.97 27.35-22.09 2.47-4.52-0.52-5.53-3-3.51 0.5-3.02 3.5-7.54 5.01-12.56 1.02-4.03-0.49-6.04-1.51-4.03-4.05 11.6-12.01 21.16-20.47 27.18-1.02 1.01 0 1.01 1.98 0.51 4.05-1.51 7.04-3.53 11.59-6.55-2.47 6.52-13.96 17.58-29.26 22.58-2.99 1.01-0.49 0.51 8.31-1.53z" fill="#88B6CC"/>
  <path d="m26.92 169.8c5.04-13.15 13.5-26.3 22.95-38.91 1.02-1.51 0-1.51-2.48-0.5-7.95 4.51-16.91 22.56-20.95 37.22-0.5 2.19-0.5 3.19 0.48 2.19z" fill="#88B6CC"/>
  <defs>
    <linearGradient id="paint0_linear_201_1104" x1="117" x2="117" y1="31.16" y2="198.9" gradientUnits="userSpaceOnUse">
      <stop stop-color="#579ABB" offset="0"/>
      <stop stop-color="#B9D9E8" offset="1"/>
    </linearGradient>
  </defs>
</svg>